<?xml version="1.0" encoding="utf-8"?>
<!-- Generator: Adobe Illustrator 24.1.2, SVG Export Plug-In . SVG Version: 6.00 Build 0)  -->
<svg version="1.1" id="レイヤー_1" xmlns="http://www.w3.org/2000/svg" xmlns:xlink="http://www.w3.org/1999/xlink" x="0px"
	 y="0px" viewBox="0 0 1280 1280" style="enable-background:new 0 0 1280 1280;" xml:space="preserve">
<style type="text/css">
	.st0{fill:#FFFFFF;}
</style>
<g transform="translate(0.000000,1276.000000) scale(0.100000,-0.100000)">
	<path class="st0" d="M12762.7,10733.9c-66,186-232,328-432,370c-154,32-442,14-654-41c-254-66-408-137-826-380
		c-344-200-534-259-830-259c-171,0-306,16-470,55c-166,39-153,32-201,112c-23,39-68,110-99,157l-57,85l141-70
		c432-214,947-277,1253-152c267,109,444,387,406,636c-35,223-194,353-432,353c-103,0-179-21-243-68c-146-105-139-381,13-518
		c33-30,47-36,84-36c25,0,45,3,45,6s-11,19-25,36c-80,95-70,354,18,455c42,47,87,66,124,52c96-36,175-199,174-358
		c-1-264-167-483-414-548c-191-50-506,11-789,153c-211,106-336,192-570,397c-177,154-311,258-412,323l-79,49l99,7
		c168,11,262,46,341,124c69,70,98,141,98,244c0,71-4,94-26,141c-34,73-85,128-146,159c-42,22-61,25-154,25c-98,0-108-2-146-27
		c-78-52-94-164-39-284c39-86,63-114,96-114c36,0,40,15,40,156c0,61,5,126,11,145c14,41,37,69,56,69c28,0,113-93,145-158
		c29-58,33-76,33-147c0-96-24-158-87-222c-82-83-233-124-328-88c-25,9-63,20-85,25s-78,22-125,39c-130,46-216,61-360,61
		c-371,0-715-162-957-451l-67-80l-27,56c-47,99-103,142-212,165c-116,24-222-11-440-143c-219-133-263-149-446-167
		c-144-14-204-27-262-56c-103-51-157-142-166-275c-3-43-9-79-12-79s-69,46-146,101c-145,103-265,168-348,188c-113,27-402,31-488,6
		c-59-16-57-13,8,25c311,176,413,545,202,734c-28,25-103,77-168,115c-191,113-223,156-267,352c-30,140-66,215-114,241
		c-52,28-186,22-255-11c-69-34-168-136-254-264c-40-59-76-107-81-107c-4,0-10,28-14,62c-20,194-74,350-149,426
		c-125,128-423,118-556-18c-25-26-65-91-106-175c-93-189-141-230-327-286c-40-12-93-32-118-44l-45-23l-2,99c-2,149-23,339-38,339
		c-7,0-15,10-18,21c-10,37-58,16-165-70c-166-133-208-197-244-367c-25-122-27-287-3-354c8-25,14-34,12-20l-3,25h113
		c108,0,113-1,108-20c-3-11,2-6,9,10c8,17,19,87,26,155c23,260,27,278,79,390c27,58,51,114,54,125c2,11,7-6,12-38
		c11-83,0-254-19-306c-12-32-13-47-5-51c7-5,4-21-11-50c-56-110-74-271-45-400c22-96,22-89-9-195c-34-114-119-289-184-381
		c-63-89-160-194-178-194c-8,0-15-8-15-18c-1-9-4-1-8,18c-7,38-41,57-41,23c0-36-41-175-70-239c-74-163-230-352-365-443
		c-167-111-333-153-615-153c-219-1-213-16,10-25c356-14,618,75,823,280c64,64,65,61,20-47c-41-98-66-131-168-223c-12-10-15-14-9-10
		c7,5,49,7,94,5c79-3,81-3,86,22c9,48,33,116,67,195c20,44,39,97,42,117c6,33,4,39-14,46c-21,7-21,8,5,46c40,59,92,177,108,246
		c15,62,22,78,31,69c2-3,15-101,27-219c19-184,20-226,10-305c-10-76-34-177-59-241c-3-10,3-14,20-14c30,0,76,66,104,150
		c30,91,25,267-16,479c-27,145-30,176-19,187c8,8,58,18,118,25c58,6,119,14,136,19l31,8v-112c-1-123,16-202,60-292
		c33-67,90-128,210-222c86-68,183-164,183-182c0-4-15-11-34-14c-83-16-146-98-161-211c-15-117-13-116-53-41c-44,83-111,160-166,189
		c-57,29-146,29-204-1c-95-50-141-118-207-302c-62-174-83-207-227-342c-110-103-133-131-164-194c-41-82-55-178-35-249
		c16-60,66-114,134-145l59-26l-39-29c-151-112-150-270,4-387c27-19,104-66,173-103c169-90,216-129,335-275c130-158,209-234,281-267
		c50-23,65-25,147-21c108,5,153,24,211,89c49,53,72,106,87,197l12,72l31-78c82-201,200-348,332-408c27-13,84-29,126-35
		c73-12,119-8,206,17l24,7l-8-116c-7-128-2-147,44-147c14,0,103,19,196,42c155,38,183,42,301,42c129,1,131,1,271-46
		c239-80,379-88,502-27c71,35,104,75,123,152c17,69,7,154-42,362c-38,160-42,194-43,310c-1,197,26,275,97,275c40,0,88-37,92-71
		c2-14,15-42,29-63c66-98,73-237,25-530c-50-309-33-436,71-530c90-81,206-116,390-116c161,0,290,20,620,96c136,30,252,35,301,10
		c17-9,44-16,58-16c15,0,34-9,44-20c9-11,25-20,34-20c40,0,42,9,27,145c-7,72-14,240-14,375s-5,276-10,315c-31,213-104,375-215,473
		c-110,97-250,143-495,162c-222,17-327,49-392,117c-83,87-74,230,17,269c59,24,176,17,371-22c152-31,192-35,266-31
		c157,10,265,81,305,201l9,29l33-58c42-73,112-144,176-175c45-23,62-25,180-25c116,0,135,2,173,23c54,29,102,94,148,205
		c70,167,108,204,259,253c99,32,150,66,183,123c24,41,27,56,26,131c0,65-7,101-26,153c-78,205-292,444-485,539c-70,34-186,49-233,30
		c-20-9-12-11,49-11c63-1,82-6,134-33c157-84,406-403,453-582c18-66,17-101-1-164c-29-97-81-136-229-173c-108-27-182-70-222-130
		c-17-25-50-93-74-150c-70-164-119-200-211-154c-121,61-193,197-253,482c-24,115-25,124-11,189c8,38,20,150,26,249
		c5,99,14,223,18,275s7,96,5,98c-7,10-68,3-80-10c-8-8-26-47-40-87c-21-60-28-109-40-274c-22-315-29-344-111-480
		c-75-124-153-187-233-187c-70,0-95,21-145,121c-38,74-65,110-155,204c-175,183-219,264-228,421c-12,221,91,430,251,509
		c65,31,103,34,177,11c30-9,100-19,155-21c104-5,99,2-18,25c-139,28-293,143-355,266c-94,186-46,389,108,457c24,11,121,33,215,49
		c194,32,229,46,400,157c256,166,367,189,463,93c36-36,79-109,69-118c-2-2-20,2-39,10c-63,27-200,40-277,28c-93-16-141-38-239-112
		c-111-84-277-178-398-224c-155-59-172-67-191-90c-15-18-15-19-1-6c14,12,39,14,133,10c82-4,119-2,128,7c7,6,53,23,102,37
		c86,25,232,93,379,179c54,31,70,37,77,26c18-28,69-168,75-207s7-40,36-31c16,4,73,43,125,85l96,77l-6-34c-10-54-100-227-156-300
		c-27-37-47-69-44-73c15-15,44-3,88,36l47,42l-4-45c-3-24-8-53-13-63c-8-18-5-19,38-13c26,4,84,26,129,49c46,24,87,45,92,47
		c21,9-33-65-77-104c-56-51-121-75-226-84c-64-5-80-3-101,12c-83,58-238,10-272-85c-5-15-26-39-46-54c-101-76-282-273-282-309
		c0-4,13-5,29-3l30,4l-15-34c-19-47-18-74,3-70c20,4,35,30,64,111c11,31,31,70,43,85c13,15,21,32,19,38s30,46,71,90l74,79l11-29
		c20-51,52-86,105-116c50-28,53-32,73-102c12-40,40-102,63-137c51-78,358-393,379-389c53,10-2,89-183,261c-130,123-149,146-186,218
		c-43,88-48,109-25,109c8,0,15-4,15-10c0-5,9-34,21-64c19-52,21-55,45-45c23,8,36,2,112-53c127-91,183-151,226-241
		c30-61,39-94,43-154c4-43,9-71,12-63c9,22,223,22,233,0c12-27,8,64-6,131c-40,188-161,286-484,392c-73,24-138,49-143,54
		c-6,6-21,39-34,74c-13,38-29,65-39,67c-13,3-15-3-10-30c5-26,4-31-6-22c-6,7-13,24-13,38c-2,19-7,26-23,26c-23,0-38,14-48,45
		c-5,19-1,20,92,20h97v70v70l80,2c91,2,169,26,234,73c41,30,103,124,99,149c-2,8,19,35,45,60c39,36,50,42,58,30c17-28,48-135,60-212
		l12-77h107h108l-5,47c-22,260-63,341-189,379c-67,20-206,18-286-5c-85-23-82-14,29,85c148,133,217,175,284,176
		c108,1,159-113,159-357c0-187,13-250,78-390c67-143,78-214,44-281c-54-105-144-137-337-120l-70,6l41-20c137-66,376-10,459,108
		c27,40,30,51,30,120c0,71-4,86-52,194c-60,132-72,195-73,363c-1,184-43,323-117,384l-35,29l64,20c156,51,188,56,353,57
		c190,0,270-18,431-94c149-71,174-89,482-348c208-175,316-239,527-312l120-42l34-66c53-102,167-280,237-369c126-163,266-259,412-284
		c180-30,340,65,350,208c12,169-94,285-261,286c-87,0-117-14-117-53s24-46,72-21c52,27,72,25,102-10c55-65,73-216,37-297
		c-25-55-58-75-121-75c-93,1-189,61-301,189c-78,89-317,448-306,460c3,2,63-6,134-19c112-20,160-23,388-23c232,0,272,2,375,23
		c244,49,412,121,847,364c440,246,677,329,903,314c153-9,259-47,358-125c165-131,212-374,98-496c-81-86-180-40-258,120
		c-44,91-52,102-92,133c-18,14-43,22-68,22c-39,0-40,0-33-33c33-151,107-264,200-303c22-9,77-19,123-22c151-9,262,41,314,142
		C12781.7,10568.9,12786.7,10667.9,12762.7,10733.9z M9253.7,10577.9c-16,1-181,93-261,147c-46,30-151,109-235,176
		c-181,144-316,234-429,287c-279,130-601,142-897,33c-67-25-116-36-163-38c-101-4-195-53-349-185c-47-40-52-42-46-20c4,14,7,51,7,82
		v57l123,123c165,167,300,258,504,339c199,79,396,107,528,74c39-9,112-37,162-60c171-80,304-179,599-443c82-74,176-154,209-179
		c66-50,99-95,177-239c29-55,58-108,65-119C9261.7,10588.9,9262.7,10577.9,9253.7,10577.9z M6458.7,10374.9c-35,3-64,7-66,9
		c-2,1,4,14,13,27c30,47,61,44,96-9c10-16,19-30,19-31C6520.7,10368.9,6492.7,10370.9,6458.7,10374.9z M6201.7,7033.9
		c-80,9-227-10-412-52c-319-72-343-76-454-77c-234-3-363,80-405,262c-14,61-10,188,15,435c23,226,4,339-74,436c-16,20-38,54-49,77
		c-38,74-115,111-193,94c-24-6-44-9-46-8c-1,2,13,41,32,87c40,100,60,204,51,276c-7,65-15,84-31,84c-8,0-14-25-19-74
		c-10-109-38-200-115-364c-72-156-126-304-118-325c3-7,6-5,6,5c1,13,9,18,30,18c26,0,30-4,34-33c2-20,5-11,7,28c2,57,3,54,20-60
		c9-66,32-183,49-260c73-316,46-450-99-485c-74-18-152-6-315,48l-140,47h-175c-146-1-191-4-275-23c-55-13-114-26-131-29l-31-5
		l-5,142c-3,83-10,145-16,149c-13,8,57,216,93,276c30,52,79,97,186,173c105,75,142,116,183,202c28,59,31,74,31,160
		c0,82-4,103-27,152c-15,32-48,80-74,108l-47,50l47,69c61,89,132,156,204,189c61,29,106,32,357,21c72-3,106,0,120,9
		c17,11,12,12-39,7c-34-3-113,1-185,11c-70,9-163,14-209,12c-75-4-92-9-180-54c-71-35-114-66-159-111l-62-62l-63,38
		c-126,76-275,119-373,107l-50-7l83,41c193,95,291,266,292,506c0,143-50,245-129,260c-35,7-36,12-17,59c18,42,36,165,36,241
		c0,47-2,54-20,54c-17,0-20-7-20-53c0-66-23-173-49-231c-25-59-101-139-174-187c-161-105-354-108-430-8c-36,49-52,92-96,266
		c-63,243-71,256-291,435c-133,109-198,254-207,459c-6,133,8,202,59,282c31,48,109,117,133,117c7,0,38-12,70-26c70-32,155-36,233-10
		c29,10,51,20,49,22s-18-1-36-7c-49-17-158-6-215,21c-48,23-48,23-24,36c34,18,169,44,227,44c27,0,53,5,57,11c9,15-179,3-281-17
		l-70-13l-56,59c-63,67-115,159-151,265c-20,60-23,89-23,210c1,128,3,146,27,208c59,148,112,193,285,244c195,57,220,81,322,305
		c65,143,159,223,276,235c68,7,118-10,171-59c54-50,84-102,117-203c60-183,76-322,85-735c6-284,9-323,24-331c10-5,14-17,11-29
		c-4-15,0-20,15-20c32,0,58,100,32,126c-7,7-7,39,0,100c5,49,10,133,10,187c0,91,2,99,21,104c14,4,39,44,84,137
		c47,96,79,147,119,189l54,59l15-24c8-13,34-57,57-98c54-98,77-120,185-187c50-30,104-69,121-85l31-29l-27-74
		c-100-267-339-538-532-600c-51-17-84-35-62-35c14,0,136,45,175,65c191,97,424,380,464,562c3,18,10,33,15,33c7,0,39-60,53-100
		c5-13,6-13,6,0c1,13,21,15,126,13c141-2,140-3,106,73c-28,62-76,110-175,176c-129,86-151,110-211,228c-83,164-127,194-285,193
		c-57-1-112-7-137-16c-24-8-43-11-43-7s33,41,73,82c79,81,144,119,216,126c87,8,126-50,151-223c25-172,65-229,252-356
		c67-46,147-107,178-136c135-125,154-262,62-453c-97-200-312-319-658-365c-60-8-131-15-159-16c-27-1-63-5-80-10c-49-14,271-1,365,15
		c111,19,178,25,182,17c2-3,29-14,60-24c32-10,91-40,132-68c177-118,288-309,273-469c-9-102-35-142-186-290
		c-155-152-178-189-227-365c-37-136-74-215-122-263c-60-60-96-76-172-77c-78,0-131,26-202,103c-103,110-193,367-245,702
		c-18,122-25,556-10,633l8,37h-35c-33,0-36-3-70-73c-20-39-43-105-51-145c-63-307,78-932,255-1125c152-166,373-226,539-145l45,22
		l60-66c39-42,95-123,155-229c137-236,192-300,486-563c287-258,557-535,852-877c136-157,231-242,325-289c77-38,108-47,121-34
		c3,3-29,32-71,64c-89,67-136,115-292,295c-264,305-499,536-898,884c-130,112-322,305-322,322c0,3,43,14,96,24
		c192,34,293,115,472,375c50,74,106,151,122,170l30,35l118-120c100-102,126-134,168-215c34-65,60-102,83-117c118-80,308-44,441,83
		c39,37,61,52,64,43c24-83,24-92,10-147c-28-106-81-174-169-214c-70-32-190-30-350,6c-211,48-382,46-492-6c-115-54-135-138-60-248
		l31-45l-50,42c-65,54-128,123-148,161c-36,71-13,116,98,196c129,92,224,227,261,371c35,137,5,173-40,47c-56-160-149-281-310-402
		c-52-39-103-82-115-97c-60-76,8-178,250-372c58-46,100-78,93-70c-10,12-2,14,47,12c32,0,67-6,79-12c42-23,19-3-49,43
		c-38,25-70,48-70,51c0,2,15-2,33-10c64-27,158-45,328-65c273-32,367-64,471-158c68-63,111-128,149-226c51-131,62-228,63-561
		c2-247,5-308,18-345c9-25,16-49,17-53S6233.7,7029.9,6201.7,7033.9z M5453.7,10268.9c-150-76-236-207-263-398
		c-16-122,10-265,64-351l22-35l-48-49c-27-27-96-113-155-191c-167-220-235-281-368-328c-94-33-142-39-158-20c-8,9-56,83-108,166
		c-66,106-116,174-171,230c-43,44-78,81-78,83s11,18,26,34c42,51,71,118,114,268c22,79,53,167,68,194c16,31,75,98,149,171
		c96,94,128,133,150,180c89,194-5,415-245,570c-75,48-168,90-225,100c-21,4-35,11-30,15c14,14,191,50,271,57c96,7,197-9,276-45
		c33-15,113-66,178-114c66-48,142-100,171-117c58-33,193-81,229-81c18,0,28-11,46-50c31-67,117-158,190-200l59-35l-53-12
		C5535.7,10303.9,5485.7,10284.9,5453.7,10268.9z M3720.7,8145.9c-37-121-91-177-285-296c-105-65-142-118-170-247
		c-40-182-88-245-189-245c-95,0-187,68-281,210c-81,121-136,279-219,623c-5,22-12,28-29,25c-34-5-48-49-52-161
		c-9-303-67-452-200-513c-79-37-132-29-194,29c-18,18-84,95-146,172c-149,187-217,249-346,315c-217,111-288,170-309,260
		c-14,58-7,100,26,157c40,70,81,94,187,109c50,8,171,35,267,62l175,47l-110,3c-140,4-257-12-366-48c-101-33-136-30-194,21
		c-45,40-59,85-53,175c8,118,46,184,188,325c132,131,157,169,230,354c64,162,95,218,137,256c61,53,113,32,184-73c22-33,39-61,37-64
		c-2-2-20,1-39,6c-43,13-160,13-192,1c-23-9-25-15-29-113c-6-136-26-181-121-272c-40-39-65-65-57-59s56,13,107,15c80,3,90,1,80-12
		c-6-8,19,14,56,50c37,35,73,78,82,95l14,32l97-94c89-87,99-94,132-91c28,2,37,8,42,25c4,19,12,10,43-52c37-72,41-75,74-75
		c34,0,34,1,28,32c-11,58-47,160-95,275c-31,72-44,116-39,125c5,7,25,61,44,120c39,116,78,179,125,203c30,15,30,15,41-12
		c6-15,26-85,45-156c51-193,90-254,192-304c53-26,65-28,177-28c107,1,129,4,205,31c97,34,182,86,234,144c20,22,40,40,45,40
		c17,0,60-60,71-98c27-97-3-318-59-437c-68-146-179-220-400-265c-76-16-155-36-177-46c-21-9-61-20-89-24c-50-6-49-6,34-14
		c48-5,86-5,90,1c3,5,65,24,136,42c106,27,149,33,235,34c162,0,264-45,407-177c88-82,150-169,174-245
		C3744.7,8265.9,3744.7,8223.9,3720.7,8145.9z M3416.7,11929.9c-3-3-6,13-6,35c0,27,6,46,19,57c19,18,19,17,6-34
		C3427.7,11958.9,3419.7,11932.9,3416.7,11929.9z M2049.7,10951.9c-45-44-90-121-104-176c-8-29-40-44-165-73c-104-24-107-21-45,41
		c117,120,227,350,260,548l6,38l21-38c31-60,98-142,150-188l47-40l-62-33C2123.7,11012.9,2074.7,10976.9,2049.7,10951.9z
		 M2118.7,9210.9c-13,2-5,4,17,4c22,1,32-1,23-4C2148.7,9208.9,2130.7,9208.9,2118.7,9210.9z M1590.7,8622.9c-42-4-49-3-32,5
		c33,14,214,50,249,49C1844.7,8675.9,1661.7,8630.9,1590.7,8622.9z"/>
	<path class="st0" d="M4572.7,10444.9c-27,50-157,198-213,243c-33,26-61,40-80,40c-16,0-29-2-29-4s12-30,27-62c37-80,38-160,3-228
		c-29-57-117-142-195-186c-30-17-69-43-85-57c-32-26-83-92-62-79c20,12,396,7,401-5c2-6,13,6,25,27c14,25,50,58,106,95
		c47,32,93,71,102,86C4594.7,10349.9,4594.7,10403.9,4572.7,10444.9z"/>
	<path class="st0" d="M4546.7,8647.9c-23,0-63-90-126-282c-89-272-239-543-385-696c-85-90-232-190-449-304c-127-66-153-84-132-86
		c39-5,114,22,261,93c311,150,492,335,657,669c61,126,96,229,147,436c17,69,33,135,37,147
		C4561.7,8641.9,4558.7,8647.9,4546.7,8647.9z"/>
	<path class="st0" d="M4458.7,8727.9c-113,0-282-43-347-91c-90-65-125-146-166-379c-38-215-64-288-129-360l-31-35l31,28
		c30,27,37,29,133,30c84,2,101-1,102-13c0-8,15,24,34,71c47,120,61,231,45,371c-15,129-10,173,24,233c41,70,156,124,266,125
		c19,0,42,5,50,10C4482.7,8725.9,4479.7,8727.9,4458.7,8727.9z"/>
	<path class="st0" d="M3889.7,10477.9c-45,36-126,111-179,167c-54,57-103,103-110,103c-20,0,9-38,107-141c118-122,215-202,243-197
		C3965.7,10411.9,3952.7,10426.9,3889.7,10477.9z"/>
	<path class="st0" d="M3771.7,10447.9c-37,15-139,121-174,180c-14,25-31,67-38,95c-6,27-13,56-15,62c-2,7-10,10-20,6
		c-43-16,16-169,101-262c54-59,128-111,157-111C3810.7,10417.9,3803.7,10433.9,3771.7,10447.9z"/>
	<path class="st0" d="M3651.7,11417.9c-11,0-22-9-26-20c-8-26-70-115-117-169c-37-42-48-71-28-71c5,0,48,39,96,86c67,66,84,88,73,94
		c-12,8-11,14,4,39C3675.7,11413.9,3674.7,11417.9,3651.7,11417.9z"/>
	<path class="st0" d="M3619.7,10162.9c-4,22-8,82-8,132c-1,75-4,93-16,93c-18,0-38-38-58-110c-18-64-32-180-20-165c4,5,28,10,53,10
		s48-5,52-10C3631.7,10100.9,3631.7,10107.9,3619.7,10162.9z"/>
	<path class="st0" d="M3533.7,10847.9c-27,18-68,48-93,66c-28,20-51,30-58,25c-11-7,88-74,176-120
		C3594.7,10799.9,3583.7,10811.9,3533.7,10847.9z"/>
	<path class="st0" d="M3449.7,11077.9c-26,90-52,110-143,110c-126,0-199-68-190-177c2-29,9-64,14-79c6-15,9-27,8-28
		c-23-12-98-80-98-89c0-47-126-252-284-462c-54-72-71-101-60-103c22-5,43,17,132,132c95,124,191,283,227,375c15,39,40,82,56,97
		l28,27l41-44c39-43,42-56,25-101c-4-9,0-15,9-15s21,16,27,34c6,19,17,37,25,40c17,6,14,24-14,83c-33,70-30,85,17,84l39-2l7,49
		c7,52,18,61,35,30c13-26,13-64-2-79c-19-19-1-26,29-12c16,7,39,13,53,13c23,1,39,18,38,42
		C3468.7,11007.9,3459.7,11041.9,3449.7,11077.9z M3333.7,11121.9c-10,3-35,1-55-3c-42-10-46-6-21,21c18,20,45,23,74,8
		C3355.7,11134.9,3356.7,11114.9,3333.7,11121.9z"/>
	<path class="st0" d="M3334.7,10860.9c-21,21-34,5-34-41c0-37,4-49,15-49c8,0,15,9,15,21s3,30,6,41S3338.7,10856.9,3334.7,10860.9z"
		/>
	<path class="st0" d="M3233.7,11977.9c-26,226-131,376-276,396c-100,14-162-29-230-160c-69-134-130-187-267-231
		c-73-24-167-71-209-105c-33-28-101-116-101-132c0-4,43-8,95-8c67,0,95-4,95-12c0-6,16,15,35,48c53,89,114,140,240,199
		c128,60,156,87,216,207c64,127,110,156,161,100c33-35,44-58,79-160c39-115,59-225,60-336c1-50,4-81,6-70c3,16,13,23,39,26
		c30,4,33,2,29-17c-5-17-4-17,4-4C3231.7,11752.9,3243.7,11887.9,3233.7,11977.9z"/>
	<path class="st0" d="M3165.7,11396.9c-41,77-62,101-87,101c-10,0-18-2-18-3c0-2,23-41,50-87c28-46,50-87,50-92c0-4,9-8,20-8
		C3207.7,11307.9,3205.7,11322.9,3165.7,11396.9z"/>
	<path class="st0" d="M3159.7,11247.9c-43,24-43,25-16,28c15,2,27,7,27,12s-37,42-82,82c-105,93-224,212-263,262c-25,31-35,37-53,32
		c-21-7-21-8-5-39c30-59,65-96,182-196c64-54,127-110,140-125l24-26l-79,29c-84,31-248,63-272,54c-8-3,48-21,124-40s171-50,212-69
		C3181.7,11211.9,3227.7,11208.9,3159.7,11247.9z"/>
	<path class="st0" d="M2951.7,11200.9c-84,4-155,6-158,4c-8-8,158-19,237-15C3089.7,11191.9,3073.7,11194.9,2951.7,11200.9z"/>
	<path class="st0" d="M3052.7,11101.9c-55,27-142,56-166,56c-12,0,8-11,44-24s84-31,108-41
		C3092.7,11070.9,3103.7,11077.9,3052.7,11101.9z"/>
	<path class="st0" d="M3052.7,11017.9c-10,0-30-22-50-55c-80-133-201-266-362-395c-97-78-103-85-77-88c61-7,239,130,347,267
		c66,84,160,236,160,258C3070.7,11011.9,3062.7,11017.9,3052.7,11017.9z"/>
	<path class="st0" d="M3056.7,10697.9c-9,0-15-23-19-83c-7-96-45-233-88-319c-24-48-28-62-17-69c7-5,18-3,25,4c19,20,71,158,93,248
		C3074.7,10577.9,3077.7,10697.9,3056.7,10697.9z"/>
	<path class="st0" d="M2770.7,11055.9c-14,0-19-2-12-5c6-2,18-2,25,0C2789.7,11053.9,2784.7,11055.9,2770.7,11055.9z"/>
	<path class="st0" d="M2765.7,10928.9c-84,6-344-5-386-16c-97-26-155-79-205-189c-23-51-26-67-22-135c4-56,12-90,31-127
		c29-57,127-182,178-229c19-17,26-21,17-10c-16,20-16,20,102,18l119-2l-45,62c-122,166-153,317-90,451c43,94,83,119,204,131
		c48,5,80,13,95,26C2784.7,10926.9,2784.7,10926.9,2765.7,10928.9z"/>
	<path class="st0" d="M2665.7,11027.9c-5,0-17-5-25-10s-10-10-5-10c6,0,17,5,25,10S2671.7,11027.9,2665.7,11027.9z"/>
	<path class="st0" d="M5175.7,10164.9c-89-12-334-71-393-95c-153-61-253-211-298-450c-56-288-79-358-123-369l-26-6l30-8
		c102-28,170,61,225,296c39,164,64,243,105,325c71,141,154,200,345,244c63,15,129,36,145,47l30,21L5175.7,10164.9z"/>
	<path class="st0" d="M5099.7,9867.9c-73,0-262-205-323-350l-14-35l79,5c64,4,79,2,82-10c1-8,13,23,26,70c30,111,62,172,122,235
		C5124.7,9838.9,5133.7,9867.9,5099.7,9867.9z"/>
	<path class="st0" d="M3653.7,8284.9c-60,172-420,365-672,362c-48,0-53-2-31-11c83-34,116-55,215-140c61-52,127-114,147-138
		c63-73,84-169,52-233c-11-21-12-28-3-20c18,18,284,19,273,1c-4-7-3-8,4-4c14,9,32,72,31,111
		C3669.7,8228.9,3662.7,8261.9,3653.7,8284.9z"/>
	<path class="st0" d="M3275.7,9292.9c-13,22-33,57-45,78c-19,34-25,38-48,32c-29-7-161-131-192-181c-11-17-26-50-34-72l-15-41l160,2
		c100,1,159-2,159-8c1-6,9,6,20,25C3307.7,9177.9,3305.7,9243.9,3275.7,9292.9z"/>
	<path class="st0" d="M3096.7,8182.9c-202,268-337,385-461,400l-40,5l41-13c95-32,174-107,361-347c138-178,173-213,201-208
		C3214.7,8021.9,3198.7,8048.9,3096.7,8182.9z"/>
	<path class="st0" d="M2859.7,8279.9c-45,55-215,198-236,198c-11,0,27-45,107-125c69-69,133-125,142-125
		C2897.7,8227.9,2894.7,8236.9,2859.7,8279.9z"/>
	<path class="st0" d="M2691.7,8301.9c-21,21-46,36-54,34c-22-4,48-98,74-98C2741.7,8237.9,2734.7,8259.9,2691.7,8301.9z"/>
	<path class="st0" d="M2688.7,8872.9c-22-7-118-64-118-70c0-9,37,5,86,31C2711.7,8862.9,2728.7,8884.9,2688.7,8872.9z"/>
	<path class="st0" d="M2618.7,8544.9c-24,15-45,31-48,34s-22,9-42,13c-39,7-49,20-23,30c8,3,20,17,26,30c7,14,21,27,33,29
		c20,4,20,4-1,6c-17,1-23,7-23,25c0,39-10,54-48,78c-31,19-51,23-117,23c-87-1-135-18-156-56c-14-27-6-55,30-105l30-41l105-11
		c86-9,118-18,168-44c62-32,108-50,108-42C2660.7,8515.9,2641.7,8529.9,2618.7,8544.9z M2370.7,8717.9c-13,0-18,5-14,15
		c5,12,10,13,20,4C2395.7,8721.9,2394.7,8717.9,2370.7,8717.9z"/>
	<path class="st0" d="M2640.7,9047.9c-13,0-104-93-121-123c-22-39,16-14,70,45C2650.7,9036.9,2658.7,9047.9,2640.7,9047.9z"/>
	<path class="st0" d="M2608.7,9265.9c-39-6-142-227-166-357c-8-45-7-51,8-51c11,0,21,14,29,42c7,24,21,58,32,76c11,19,17,37,14,42
		c-2,4,20,60,50,124s55,119,55,122S2620.7,9267.9,2608.7,9265.9z"/>
	<path class="st0" d="M2411.7,9707.9c-38,0-91-85-104-166l-7-42l39-4l39-3l5,62c4,34,15,80,27,102
		C2435.7,9705.9,2435.7,9707.9,2411.7,9707.9z"/>
	<path class="st0" d="M2411.7,8527.9c-7,25-41,42-41,20c0-18,30-70,40-70C2421.7,8477.9,2421.7,8490.9,2411.7,8527.9z"/>
	<path class="st0" d="M2379.7,8184.9c-23,23-73,15-100-14c-13-15-17-22-9-16c9,7,39,13,68,15
		C2381.7,8171.9,2389.7,8174.9,2379.7,8184.9z"/>
	<path class="st0" d="M2373.7,9004.9c-5,41-33,46-33,5c0-38,19-102,30-102C2380.7,8907.9,2381.7,8941.9,2373.7,9004.9z"/>
	<path class="st0" d="M2285.7,8447.9c-19,0-26-14-70-140c-20-58-45-120-56-138c-23-41-23-42,0-42c21,0,53,66,96,200
		c15,47,31,89,36,94C2304.7,8436.9,2302.7,8447.9,2285.7,8447.9z"/>
	<path class="st0" d="M2202.7,8962.9c-45,48-52,61-38,63c13,3-4,16-50,42c-38,21-89,59-114,84c-41,42-90,62-90,36
		c0-22,63-79,122-110c35-19,72-45,83-59c10-14,36-44,57-65l38-39l-52,6c-66,7-118,24-288,97c-146,62-217,85-295,94c-88,11-82-9,7-28
		c104-22,366-126,403-160c15-14,32-26,36-26c5,0,9-5,9-10c0-6-24-10-52-10c-52,0-129-27-142-49c-12-19,29-12,86,14
		c60,28,125,32,167,10c27-13,41-11,41,6c0,4-10,9-22,13c-13,3-36,16-52,29l-29,24l79-14c43-7,95-12,116-11l36,3L2202.7,8962.9z"/>
	<path class="st0" d="M2236.7,8577.9c-24,0-71-71-147-224c-67-135-73-165-32-149c10,4,135,243,191,365
		C2250.7,8574.9,2245.7,8577.9,2236.7,8577.9z"/>
	<path class="st0" d="M2219.7,8647.9c-11,0-32-15-47-33c-46-57-174-186-286-290l-108-101l-44,46c-36,39-44,54-44,85
		c0,53,30,85,125,136c73,38,80,45,80,72c0,23-5,31-22,33c-28,4-260-72-334-109c-158-79-125-193,92-312c28-15,48-24,45-19
		c-3,6,8,12,24,14c24,4,28,2,18-10c-9-10-8-16,3-23c21-13,31-11,64,15c24,19,34,22,55,14c24-9,24-8,8,8c-17,17-9,26,155,194
		c149,150,237,252,237,274C2240.7,8644.9,2231.7,8647.9,2219.7,8647.9z"/>
	<path class="st0" d="M11403.7,11145.9c-11-2-21-22-30-63c-7-32-23-70-35-82c-26-28-17-40,20-27c35,12,62,66,62,127
		C11420.7,11140.9,11417.7,11148.9,11403.7,11145.9z"/>
	<path class="st0" d="M11299.7,11202.9c-12,72-34,130-50,133c-12,2-14-22-11-145c2-81,5-154,7-161c3-6,15-12,28-12c19,0,26,7,31,31
		C11312.7,11087.9,11310.7,11138.9,11299.7,11202.9z"/>
	<path class="st0" d="M11186.7,11219.9c-48,134-194,378-228,378c-12,0-18-5-15-13c3-6,28-63,56-125c29-62,63-154,78-204
		c22-78,25-104,21-189l-5-99h29c19,0,40,10,59,29c26,26,29,36,29,93C11210.7,11129.9,11201.7,11176.9,11186.7,11219.9z"/>
	<path class="st0" d="M10473.7,9710.9c-16,17-36,2-89-63c-78-96-101-109-224-120c-144-12-139-24,7-17c161,8,197,26,286,149
		C10482.7,9699.9,10483.7,9701.9,10473.7,9710.9z"/>
	<path class="st0" d="M10463.7,9340.9c-11,12-22,8-48-21c-23-25-30-27-95-24c-43,2-70-1-70-8c0-17,172-13,198,6
		C10470.7,9308.9,10476.7,9328.9,10463.7,9340.9z"/>
	<path class="st0" d="M10437.7,9487.9c-13,0-34-12-48-26c-32-35-95-64-142-64c-23,0-36-4-32-10c11-17,98-11,145,11
		c48,22,77,44,91,71C10459.7,9484.9,10457.7,9487.9,10437.7,9487.9z"/>
	<path class="st0" d="M10426.7,9907.9c-20,0-32-13-62-67c-77-138-148-189-275-200c-110-9-97-26,17-21c163,7,249,62,315,201
		C10456.7,9895.9,10457.7,9907.9,10426.7,9907.9z"/>
	<path class="st0" d="M9105.7,8997.9c-52,167-304,249-430,139c-81-72-67-182,28-218c32-12,77-14,102-4c14,5,10,9-16,17
		c-28,9-37,19-48,54c-28,90,18,173,89,157c41-9,96-58,122-109c32-62,36-160,9-220c-32-73-74-120-143-157c-63-34-63-34-193-33
		c-114,1-140,4-210,28c-173,59-313,143-425,256c-95,94-135,170-190,355c-23,77-52,173-65,212c-13,40-22,73-20,73s26-8,52-19
		c143-56,353-71,470-33c123,39,193,97,242,202c23,48,26,68,26,156c0,95-2,103-30,150c-43,68-99,99-185,99c-53,0-74-5-112-27
		c-85-50-115-131-79-212c19-44,23-47,53-44c31,3,32,5,45,73c7,38,18,83,24,100c13,31,47,75,59,75c4,0,22-28,41-63
		c30-56,33-69,33-142c-3-259-153-392-399-355c-78,12-179,41-226,66c-15,7-39,35-55,61c-41,70-112,141-169,171c-39,19-68,26-130,29
		l-80,3l57-13c142-32,221-160,308-495c66-255,142-386,293-507c192-154,491-250,716-230C8994.7,8620.9,9170.7,8784.9,9105.7,8997.9z"
		/>
	<path class="st0" d="M7945.7,12370.9c-20,103-39,147-64,147c-11,0-22-4-25-9c-4-5-13-74-21-153c-8-78-20-160-27-182
		c-51-162-224-121-508,120c-136,115-191,154-269,194c-108,54-248,73-358,50c-38-9-62-7-108,5c-178,46-416-4-592-123
		c-142-97-224-210-396-551c-167-332-251-451-400-570c-146-115-289-170-472-179c-105-6-113-7-65-13c72-9,231,6,334,30
		c222,53,431,168,553,305c78,88,139,201,227,418c128,314,175,396,287,504c74,70,132,106,208,128c63,19,169,21,226,5l40-11l-25-17
		c-103-67-150-147-150-256c1-117,51-194,160-244c73-33,200-41,265-17c103,40,140,153,96,295c-26,83-62,141-121,194l-50,45l33,6
		c38,7,124-6,187-29c72-25,120-58,292-196c171-137,272-196,383-224c69-17,173-19,228-4c46,12,99,58,120,102
		C7956.7,12189.9,7961.7,12282.9,7945.7,12370.9z M6722.7,12037.9c-36-72-93-76-164-12c-54,49-88,121-88,191c0,79,19,128,70,184
		l46,49l56-61c44-47,62-76,77-124C6744.7,12184.9,6746.7,12084.9,6722.7,12037.9z"/>
	<path class="st0" d="M6738.7,10291.9c-13,3-34,5-48,5c-15-1-7-5,19-10C6756.7,10277.9,6777.7,10280.9,6738.7,10291.9z"/>
	<path class="st0" d="M6692.7,10486.9c-24,1-92-24-92-34c0-3,9-1,19,5c11,5,37,14,58,19
		C6701.7,10482.9,6707.7,10485.9,6692.7,10486.9z"/>
	<path class="st0" d="M6541.7,10521.9c-72,65-129,219-138,372c-5,92-8,104-25,104c-16,0-18-9-18-103c0-113,19-218,50-283
		c17-34,19-47,10-64c-15-28-28-22-67,28c-44,58-74,143-81,237c-5,61-10,80-22,80c-19,0-25-82-12-155c5-28,6-53,2-55
		c-13-8,11-85,26-85c7,0,18-8,23-18s28-31,50-46c33-23,47-27,75-22c19,4,37,12,39,19c3,8,13,4,30-11c16-16,34-22,52-20l27,3
		L6541.7,10521.9z"/>
	<path class="st0" d="M6523.7,9570.9c-14,35-18,38-50,35c-28-2-41-11-63-43c-16-22-31-51-35-65c-4-17-3-21,3-12c11,17,150,22,156,7
		c3-6,5,1,5,15S6532.7,9549.9,6523.7,9570.9z"/>
	<path class="st0" d="M6403.7,10054.9c-8,24-21,43-29,43c-18,0-17-1,2-50c9-22,22-40,30-40s14,1,13,2
		C6419.7,10011.9,6412.7,10031.9,6403.7,10054.9z"/>
	<path class="st0" d="M6281.7,10207.9c-13,0-17-8-26-48c-5-25-3-32,8-32c14,0,27,28,27,62
		C6290.7,10199.9,6286.7,10207.9,6281.7,10207.9z"/>
	<path class="st0" d="M6237.7,10581.9c-41-6-47-4-62,20c-10,14-26,26-38,26c-19,0-20-1-2-20c23-25,15-34-25-25c-41,9-86,49-111,96
		c-31,62-70,48-49-17c16-49,72-83,159-98c39-6,76-17,83-24c16-16,33-15,19,1c-14,18-4,27,30,27c15,0,31,4,34,10
		C6279.7,10583.9,6265.7,10585.9,6237.7,10581.9z"/>
	<path class="st0" d="M6159.7,10135.9c-18-2-28-15-42-53c-34-89-84-239-92-273c-6-28-4-32,15-32c27,0,56,64,100,216
		c17,60,34,117,37,127C6181.7,10135.9,6177.7,10138.9,6159.7,10135.9z"/>
	<path class="st0" d="M6134.7,10406.9c-11,0-14-3-6-6c7-3,16-2,19,1C6151.7,10404.9,6145.7,10407.9,6134.7,10406.9z"/>
	<path class="st0" d="M5911.7,10170.9c-53,11-141,8-212-7c-178-38-310-167-326-319c-5-51,5-164,13-142c3,6,57,8,149,5l145-5l-7,35
		c-5,19-8,71-8,115c1,70,5,88,32,141c39,75,98,128,161,144C5941.7,10158.9,5949.7,10163.9,5911.7,10170.9z"/>
	<path class="st0" d="M2806.7,6152.9c-17,39-68,82-126,107c-48,21-328,88-367,88c-42,0-9-36,99-107c112-74,181-154,218-251
		c26-68,26-163,1-217c-22-47-74-99-114-114c-52-20-147-13-206,14c-158,74-222,189-242,432c-18,217,10,406,82,561
		c74,161,164,261,349,392c58,41,133,102,166,136c60,60,114,152,114,193c0,38-25,22-52-32c-14-28-44-73-67-99c-47-53-139-124-148-114
		c-4,3-18-1-32-11c-43-27-262-218-316-274c-148-153-330-278-481-329c-86-29-116-34-230-38c-144-5-224,5-335,43
		c-106,36-174,80-275,180c-115,114-135,160-142,315c-5,125,13,214,60,302c26,49,71,98,91,98c2,0,12-28,22-62c59-212,147-298,302-298
		c83,0,126,15,163,55c21,23,25,36,24,88c0,76-24,125-90,191c-68,66-138,98-231,104c-41,3-76,10-79,16c-2,6-19,103-38,216
		c-61,357-112,487-245,621c-110,110-212,157-385,174c-76,8-86-8-12-18c25-4,74-19,108-35c160-73,265-215,334-451
		c18-61,114-505,114-528c0-1-24-9-52-18c-240-78-379-278-324-467c28-96,187-293,316-390c83-63,204-122,305-150c70-18,107-21,285-22
		c170,0,221,4,300,21c107,23,203,59,292,109c33,19,61,34,62,34s-8-31-20-68c-35-105-54-232-54-368c0-337,123-515,395-571
		c181-37,349,30,420,167C2813.7,5869.9,2836.7,6083.9,2806.7,6152.9z M1240.7,7127.9c-41-77-141-17-206,124c-23,50-64,178-64,200
		c0,12,68-3,111-24C1186.7,7373.9,1278.7,7198.9,1240.7,7127.9z"/>
	<path class="st0" d="M2741.7,5697.9c-6,0-27-25-47-56c-47-70-116-140-163-163c-80-40-138-34-230,23c-74,45-104,57-122,46
		c-11-7-8-15,16-41c44-47,106-71,200-76c113-8,177,12,247,76C2711.7,5570.9,2777.7,5697.9,2741.7,5697.9z"/>
	<path class="st0" d="M2624.7,5374.9c-16-3-67-19-114-36c-123-45-168-42-276,14c-91,48-121,53-116,20c17-96,249-119,444-43
		C2643.7,5360.9,2676.7,5384.9,2624.7,5374.9z"/>
	<path class="st0" d="M2434.7,7180.9c-4,4-14,7-23,7c-11,0-12-3-4-11c6-6,16-10,23-7C2436.7,7171.9,2438.7,7176.9,2434.7,7180.9z"/>
	<path class="st0" d="M2405.7,12260.9c-8,15-37,53-64,84c-79,88-110,171-111,289c0,34-3,76-6,93c-6,27-11,31-40,31
		c-35,0-34,1-136-130c-38-48-58-63-164-115c-66-33-143-75-172-93c-70-45-190-175-228-247l-32-58l-12,39c-29,91-100,174-188,218
		c-123,61-261,66-522,15c-160-31-190-34-348-32c-94,0-172-1-172-4c0-2,18-34,40-71c92-151,107-314,64-677c-16-139-18-311-4-373
		c27-115,97-200,213-257c44-21,141-53,250-80c251-64,311-97,361-197c51-102,25-183-62-195c-73-10-63-27,11-20c76,7,116,25,147,64
		c43,54,6,171-77,243c-56,49-125,77-302,120c-196,49-255,74-327,142c-68,64-97,119-118,221c-20,96-20,181,0,382
		c33,324,21,492-42,616c-13,27-24,50-24,52s55,4,122,5c88,0,163,8,263,27c77,15,181,29,231,32c230,14,374-102,437-354
		c12-50,13-76,5-135c-14-97-3-343,19-443c17-74,20-80,45-83c23-3,29,2,35,25c4,15,7,148,5,295c-3,306,5,367,63,477
		c74,140,183,236,385,337c90,45,139,76,158,100c15,19,30,34,33,34c4,0,8-30,11-68c7-94,35-150,122-241c69-73,80-90,88-146
		c2-13,12-21,31-23c25-3,27-1,27,35C2420.7,12215.9,2413.7,12245.9,2405.7,12260.9z"/>
	<path class="st0" d="M2168.7,5240.9c-62-5-68-4-93,21c-34,34-78,36-73,3c4-30,58-48,124-41
		C2210.7,5232.9,2246.7,5247.9,2168.7,5240.9z"/>
	<path class="st0" d="M2099.7,5089.9c-14,4-46,26-71,48c-47,41-62,47-73,30c-20-33,71-93,133-88
		C2122.7,5082.9,2123.7,5083.9,2099.7,5089.9z"/>
	<path class="st0" d="M1935.7,6507.9c-9,0-27-27-44-64c-16-35-68-131-117-212c-193-326-238-468-237-754c1-206,19-312,128-750
		c129-519,150-640,149-890c0-161-12-277-40-378c-6-21-4-23,17-20c29,4,77,95,111,213c21,72,23,100,23,285c0,245-6,283-110,696
		c-174,691-189,883-95,1262c45,183,69,250,135,382c41,81,95,210,95,225C1950.7,6505.9,1943.7,6507.9,1935.7,6507.9z"/>
	<path class="st0" d="M1660.7,4192.9c-4,60-8,140-9,177c-1,66-2,68-26,68c-14,0-27-6-30-13c-2-6-8-165-14-352c-12-371-19-445-58-610
		c-72-306-207-616-398-915c-107-168-194-340-220-435s-30-301-7-407l18-87l-27-10c-69-24-147-129-175-235c-14-53-17-222-5-266
		c6-21,0-31-39-67c-25-22-58-63-73-90c-35-65-60-176-53-231c5-39,3-46-27-76c-65-65-95-160-104-326c-5-112,6-244,28-323
		c8-30,15-38,30-35c20,3,20,12,23,213c3,222,18,311,67,406l20,39l29-22c42-31,152-38,180-13c11,10,20,26,20,36c0,25-55,67-98,74
		c-62,11-62,11-62,65c0,80,28,184,61,230l30,41l25-30c44-52,105-74,208-75l91-1l-1,46c-1,89-65,138-180,139c-61,0-62,0-68,31
		c-24,123,25,319,97,387l23,22l47-93c57-112,125-192,198-232c136-74,320-9,345,122c9,47-21,125-66,172c-76,78-227,131-374,131
		c-74,0-71-5-87,115c-21,164,17,357,106,535c23,47,84,150,135,230c232,366,382,774,420,1149
		C1671.7,3787.9,1671.7,4015.9,1660.7,4192.9z M1402.7,1288.9c-10-14-31-32-45-39c-90-44-238,103-307,303l-19,55l25,6
		c45,11,148-2,193-26c60-30,140-107,163-155C1434.7,1384.9,1430.7,1326.9,1402.7,1288.9z M960.7,947.9c-39,0-139,98-124,121
		c15,24,103-3,123-38C973.7,1006.9,973.7,947.9,960.7,947.9z M706.7,597.9c-18,0-46,38-46,63c0,15,3,16,23,6c12-7,25-17,29-23
		C725.7,624.9,721.7,597.9,706.7,597.9z"/>
	<path class="st0" d="M1540.7,10996.9c-218,56-298,96-389,191c-90,95-156,212-257,457c-139,337-224,473-323,517c-41,19-111,16-111-5
		c0-6,14-7,36-3c33,6,39,3,83-43c62-64,132-203,216-428c104-276,172-400,282-510c93-93,160-124,367-170
		C1556.7,10977.9,1633.7,10972.9,1540.7,10996.9z"/>
	<path class="st0" d="M1502.7,10177.9c-23,0-30-6-41-38c-82-233-195-427-322-554c-62-62-94-85-170-121c-117-56-182-71-291-65
		c-106,5-161,31-302,138c-56,42-119,87-141,100c-101,59-107,88-41,194c74,119,133,246,185,398c58,170,89,235,134,281
		c65,64,146,87,308,87c65,0,99,4,99,11c0,8-51,10-172,7c-194-5-250-18-320-71c-88-68-134-149-224-403c-46-133-71-186-116-252
		c-39-57-68-121-68-154c0-34,35-64,148-124c48-26,117-69,153-95c143-105,268-144,434-136c248,11,453,125,616,340
		c101,133,158,282,159,409C1530.7,10175.9,1529.7,10177.9,1502.7,10177.9z"/>
	<path class="st0" d="M1449.7,4136.9c-41,28-113,79-162,112c-178,125-258,247-297,454c-7,33-15,202-20,375c-10,393-25,478-106,607
		c-42,65-99,104-163,111c-42,4-52,1-83-26c-49-44-77-142-40-142c11,0,26,20,45,59c32,69,56,83,96,54c78-58,131-184,150-356
		c6-53,11-203,11-334c0-273,13-386,60-513c62-173,170-276,422-405c103-53,140-67,148-58C1519.7,4082.9,1504.7,4097.9,1449.7,4136.9z
		"/>
	<path class="st0" d="M1459.7,6188.9c-34,18-130,7-167-20c-69-49-93-157-49-221c12-18,34-42,48-53c28-20,119-36,119-21
		c0,5-17,20-37,34c-60,41-78,114-48,188c28,66,50,82,106,75C1484.7,6164.9,1493.7,6170.9,1459.7,6188.9z"/>
	<path class="st0" d="M1377.7,5699.9c-41,20-91,51-112,69c-76,67-101,164-68,261c11,32,18,60,15,63c-16,16-36-2-59-52
		c-50-108-28-209,64-294c55-52,147-92,201-87C1451.7,5662.9,1450.7,5663.9,1377.7,5699.9z"/>
	<path class="st0" d="M1400.7,5536.9c-91,3-178,71-203,158c-13,43-17,48-45,51c-31,3-32,2-32-37c0-53,15-89,53-129
		c49-50,172-78,232-52C1423.7,5535.9,1423.7,5536.9,1400.7,5536.9z"/>
	<path class="st0" d="M1384.7,5407.9c-51,0-124,27-165,59c-35,29-79,41-79,23c0-13,52-58,87-76c43-21,144-32,169-18
		C1413.7,5405.9,1411.7,5406.9,1384.7,5407.9z"/>
	<path class="st0" d="M1335.7,11880.9c-46,166-182,317-339,376c-102,38-276,49-401,24c-25-5-17-9,51-24c45-10,101-27,124-39
		c59-30,121-97,162-177c35-66,49-104,102-283l25-85l136,3c135,3,135,3,136-20c1-19,3-18,9,7
		C1352.7,11710.9,1349.7,11828.9,1335.7,11880.9z"/>
	<path class="st0" d="M1326.7,10547.9c-7,0-24-25-36-56c-28-68-101-149-183-204c-45-30-54-40-33-34c22,5,27,4,21-6
		c-14-23,55,24,115,78c41,37,70,74,95,124C1343.7,10526.9,1348.7,10547.9,1326.7,10547.9z"/>
	<path class="st0" d="M586.7,11697.9c-7,30-21,82-30,115c-9,32-16,69-16,80c0,39-30,124-54,151c-35,42-47,22-20-33
		c30-59,31-137,5-266c-25-121-32-194-22-237c5-19,9-29,10-23c1,9,21,13,66,13c61,0,65,1,65,22c0,13,2,45,5,73
		C597.7,11619.9,593.7,11667.9,586.7,11697.9z"/>
	<path class="st0" d="M593.7,11479.9c-3-7-2-16,1-19c3-4,6,2,5,13C599.7,11484.9,596.7,11487.9,593.7,11479.9z"/>
</g>
</svg>
